<svg width="512" height="512" viewBox="0 0 512 512" xmlns="http://www.w3.org/2000/svg">
  <defs>
    <radialGradient id="bg-gradient" cx="50%" cy="50%" r="60%">
      <stop offset="0%" style="stop-color:#00d4ff;stop-opacity:0.3" />
      <stop offset="100%" style="stop-color:#0a1929;stop-opacity:1" />
    </radialGradient>
    <filter id="glow">
      <feGaussianBlur stdDeviation="8" result="coloredBlur"/>
      <feMerge>
        <feMergeNode in="coloredBlur"/>
        <feMergeNode in="SourceGraphic"/>
      </feMerge>
    </filter>
  </defs>
  
  <!-- Background -->
  <rect width="512" height="512" fill="url(#bg-gradient)"/>
  
  <!-- Phone outline with glow -->
  <g filter="url(#glow)">
    <rect x="160" y="100" width="192" height="312" rx="24" ry="24" 
          fill="none" stroke="#00d4ff" stroke-width="8"/>
    
    <!-- Notch -->
    <rect x="210" y="100" width="92" height="8" rx="4" ry="4" fill="#00d4ff"/>
    
    <!-- Wave pattern inside phone -->
    <path d="M 180 180 Q 200 160, 220 180 T 260 180 T 300 180 T 332 180" 
          fill="none" stroke="#00d4ff" stroke-width="4" opacity="0.8"/>
    <path d="M 180 220 Q 200 200, 220 220 T 260 220 T 300 220 T 332 220" 
          fill="none" stroke="#00d4ff" stroke-width="4" opacity="0.8"/>
    <path d="M 180 260 Q 200 240, 220 260 T 260 260 T 300 260 T 332 260" 
          fill="none" stroke="#00d4ff" stroke-width="4" opacity="0.8"/>
    <path d="M 180 300 Q 200 280, 220 300 T 260 300 T 300 300 T 332 300" 
          fill="none" stroke="#00d4ff" stroke-width="4" opacity="0.8"/>
    <path d="M 180 340 Q 200 320, 220 340 T 260 340 T 300 340 T 332 340" 
          fill="none" stroke="#00d4ff" stroke-width="4" opacity="0.8"/>
  </g>
</svg>
